<svg xmlns="http://www.w3.org/2000/svg" xmlns:xlink="http://www.w3.org/1999/xlink" width="166" zoomAndPan="magnify" viewBox="0 0 124.5 49.499998" height="66" preserveAspectRatio="xMidYMid meet" version="1.0"><defs><g/></defs><g fill="#ffffff" fill-opacity="1"><g transform="translate(3.380733, 33.251488)"><g><path d="M 5.390625 -4.40625 L 13.0625 -4.40625 C 13.4375 -4.40625 13.71875 -4.390625 13.90625 -4.359375 C 14.101562 -4.335938 14.328125 -4.257812 14.578125 -4.125 C 15.023438 -3.894531 15.25 -3.25 15.25 -2.1875 C 15.25 -1.03125 14.941406 -0.351562 14.328125 -0.15625 C 14.046875 -0.0507812 13.613281 0 13.03125 0 L 3.1875 0 C 2.019531 0 1.335938 -0.3125 1.140625 -0.9375 C 1.046875 -1.207031 1 -1.632812 1 -2.21875 L 1 -16.046875 C 1 -16.890625 1.15625 -17.460938 1.46875 -17.765625 C 1.78125 -18.078125 2.378906 -18.234375 3.265625 -18.234375 L 13.0625 -18.234375 C 13.4375 -18.234375 13.71875 -18.21875 13.90625 -18.1875 C 14.101562 -18.164062 14.328125 -18.085938 14.578125 -17.953125 C 15.023438 -17.722656 15.25 -17.078125 15.25 -16.015625 C 15.25 -14.859375 14.941406 -14.179688 14.328125 -13.984375 C 14.046875 -13.878906 13.613281 -13.828125 13.03125 -13.828125 L 5.390625 -13.828125 L 5.390625 -11.3125 L 10.328125 -11.3125 C 10.703125 -11.3125 10.984375 -11.300781 11.171875 -11.28125 C 11.367188 -11.257812 11.59375 -11.179688 11.84375 -11.046875 C 12.289062 -10.816406 12.515625 -10.171875 12.515625 -9.109375 C 12.515625 -7.941406 12.195312 -7.257812 11.5625 -7.0625 C 11.28125 -6.96875 10.847656 -6.921875 10.265625 -6.921875 L 5.390625 -6.921875 Z M 5.390625 -4.40625 "/></g></g></g><g fill="#ffffff" fill-opacity="1"><g transform="translate(19.741592, 33.251488)"><g/></g></g><g fill="#ffffff" fill-opacity="1"><g transform="translate(26.529836, 33.251488)"><g><path d="M 8.328125 -3.453125 L 2.40625 -3.453125 C 1.476562 -3.453125 0.925781 -3.734375 0.75 -4.296875 C 0.664062 -4.597656 0.625 -4.976562 0.625 -5.4375 C 0.625 -5.90625 0.671875 -6.28125 0.765625 -6.5625 C 0.867188 -6.84375 1.03125 -7.039062 1.25 -7.15625 C 1.539062 -7.3125 1.9375 -7.390625 2.4375 -7.390625 L 8.359375 -7.390625 C 9.285156 -7.390625 9.832031 -7.113281 10 -6.5625 C 10.101562 -6.269531 10.15625 -5.890625 10.15625 -5.421875 C 10.15625 -4.953125 10.109375 -4.570312 10.015625 -4.28125 C 9.921875 -4 9.773438 -3.800781 9.578125 -3.6875 C 9.273438 -3.53125 8.859375 -3.453125 8.328125 -3.453125 Z M 8.328125 -3.453125 "/></g></g></g><g fill="#ffffff" fill-opacity="1"><g transform="translate(37.793581, 33.251488)"><g/></g></g><g fill="#ffffff" fill-opacity="1"><g transform="translate(44.581827, 33.251488)"><g><path d="M 3.203125 -18.265625 L 7.8125 -18.234375 C 10.21875 -18.234375 12.332031 -17.363281 14.15625 -15.625 C 15.976562 -13.894531 16.890625 -11.765625 16.890625 -9.234375 C 16.890625 -6.710938 16 -4.546875 14.21875 -2.734375 C 12.4375 -0.929688 10.273438 -0.03125 7.734375 -0.03125 L 3.1875 -0.03125 C 2.175781 -0.03125 1.546875 -0.234375 1.296875 -0.640625 C 1.097656 -0.992188 1 -1.523438 1 -2.234375 L 1 -16.0625 C 1 -16.46875 1.007812 -16.757812 1.03125 -16.9375 C 1.050781 -17.125 1.128906 -17.34375 1.265625 -17.59375 C 1.492188 -18.039062 2.140625 -18.265625 3.203125 -18.265625 Z M 7.8125 -4.421875 C 9.007812 -4.421875 10.085938 -4.863281 11.046875 -5.75 C 12.003906 -6.644531 12.484375 -7.765625 12.484375 -9.109375 C 12.484375 -10.453125 12.015625 -11.570312 11.078125 -12.46875 C 10.140625 -13.375 9.039062 -13.828125 7.78125 -13.828125 L 5.390625 -13.828125 L 5.390625 -4.421875 Z M 7.8125 -4.421875 "/></g></g></g><g fill="#ffffff" fill-opacity="1"><g transform="translate(62.583704, 33.251488)"><g><path d="M 11.515625 -16.9375 L 18.234375 -3.0625 C 18.515625 -2.5 18.65625 -2.078125 18.65625 -1.796875 C 18.65625 -1.191406 18.175781 -0.648438 17.21875 -0.171875 C 16.65625 0.109375 16.207031 0.25 15.875 0.25 C 15.550781 0.25 15.285156 0.171875 15.078125 0.015625 C 14.878906 -0.128906 14.734375 -0.285156 14.640625 -0.453125 C 14.546875 -0.617188 14.414062 -0.863281 14.25 -1.1875 L 12.953125 -3.875 L 6.0625 -3.875 L 4.78125 -1.1875 C 4.613281 -0.863281 4.484375 -0.625 4.390625 -0.46875 C 4.296875 -0.320312 4.144531 -0.171875 3.9375 -0.015625 C 3.726562 0.140625 3.460938 0.21875 3.140625 0.21875 C 2.816406 0.21875 2.375 0.078125 1.8125 -0.203125 C 0.851562 -0.660156 0.375 -1.191406 0.375 -1.796875 C 0.375 -2.078125 0.515625 -2.5 0.796875 -3.0625 L 7.515625 -16.96875 C 7.691406 -17.34375 7.96875 -17.644531 8.34375 -17.875 C 8.71875 -18.113281 9.113281 -18.234375 9.53125 -18.234375 C 10.425781 -18.234375 11.085938 -17.800781 11.515625 -16.9375 Z M 9.5 -10.96875 L 7.859375 -7.5625 L 11.171875 -7.5625 Z M 9.5 -10.96875 "/></g></g></g><g fill="#ffffff" fill-opacity="1"><g transform="translate(82.102284, 33.251488)"><g><path d="M 2.1875 -18.265625 L 16.015625 -18.265625 C 16.546875 -18.265625 16.9375 -18.203125 17.1875 -18.078125 C 17.4375 -17.953125 17.601562 -17.753906 17.6875 -17.484375 C 17.769531 -17.222656 17.8125 -16.875 17.8125 -16.4375 C 17.8125 -16.007812 17.769531 -15.664062 17.6875 -15.40625 C 17.601562 -15.15625 17.460938 -14.976562 17.265625 -14.875 C 16.960938 -14.726562 16.539062 -14.65625 16 -14.65625 L 11.25 -14.65625 L 11.25 -2.140625 C 11.25 -1.753906 11.234375 -1.46875 11.203125 -1.28125 C 11.179688 -1.101562 11.109375 -0.894531 10.984375 -0.65625 C 10.859375 -0.414062 10.632812 -0.242188 10.3125 -0.140625 C 10 -0.046875 9.585938 0 9.078125 0 C 8.566406 0 8.15625 -0.046875 7.84375 -0.140625 C 7.539062 -0.242188 7.328125 -0.414062 7.203125 -0.65625 C 7.078125 -0.894531 7 -1.109375 6.96875 -1.296875 C 6.945312 -1.492188 6.9375 -1.785156 6.9375 -2.171875 L 6.9375 -14.65625 L 2.171875 -14.65625 C 1.640625 -14.65625 1.25 -14.71875 1 -14.84375 C 0.75 -14.96875 0.582031 -15.160156 0.5 -15.421875 C 0.414062 -15.691406 0.375 -16.039062 0.375 -16.46875 C 0.375 -16.894531 0.414062 -17.238281 0.5 -17.5 C 0.582031 -17.757812 0.722656 -17.9375 0.921875 -18.03125 C 1.222656 -18.1875 1.644531 -18.265625 2.1875 -18.265625 Z M 2.1875 -18.265625 "/></g></g></g><g fill="#ffffff" fill-opacity="1"><g transform="translate(100.775485, 33.251488)"><g><path d="M 11.515625 -16.9375 L 18.234375 -3.0625 C 18.515625 -2.5 18.65625 -2.078125 18.65625 -1.796875 C 18.65625 -1.191406 18.175781 -0.648438 17.21875 -0.171875 C 16.65625 0.109375 16.207031 0.25 15.875 0.25 C 15.550781 0.25 15.285156 0.171875 15.078125 0.015625 C 14.878906 -0.128906 14.734375 -0.285156 14.640625 -0.453125 C 14.546875 -0.617188 14.414062 -0.863281 14.25 -1.1875 L 12.953125 -3.875 L 6.0625 -3.875 L 4.78125 -1.1875 C 4.613281 -0.863281 4.484375 -0.625 4.390625 -0.46875 C 4.296875 -0.320312 4.144531 -0.171875 3.9375 -0.015625 C 3.726562 0.140625 3.460938 0.21875 3.140625 0.21875 C 2.816406 0.21875 2.375 0.078125 1.8125 -0.203125 C 0.851562 -0.660156 0.375 -1.191406 0.375 -1.796875 C 0.375 -2.078125 0.515625 -2.5 0.796875 -3.0625 L 7.515625 -16.96875 C 7.691406 -17.34375 7.96875 -17.644531 8.34375 -17.875 C 8.71875 -18.113281 9.113281 -18.234375 9.53125 -18.234375 C 10.425781 -18.234375 11.085938 -17.800781 11.515625 -16.9375 Z M 9.5 -10.96875 L 7.859375 -7.5625 L 11.171875 -7.5625 Z M 9.5 -10.96875 "/></g></g></g></svg>