<svg xmlns="http://www.w3.org/2000/svg" xmlns:xlink="http://www.w3.org/1999/xlink" width="166" zoomAndPan="magnify" viewBox="0 0 124.5 49.499998" height="66" preserveAspectRatio="xMidYMid meet" version="1.0"><defs><g/></defs><g fill="#ffffff" fill-opacity="1"><g transform="translate(3.899322, 30.584209)"><g><path d="M 7.578125 -7.9375 L 10.734375 -7.9375 C 11.378906 -7.914062 11.773438 -7.75 11.921875 -7.4375 C 12.035156 -7.207031 12.09375 -6.867188 12.09375 -6.421875 L 12.09375 -2.484375 C 12.09375 -2.097656 11.925781 -1.726562 11.59375 -1.375 C 10.59375 -0.34375 9.085938 0.171875 7.078125 0.171875 C 5.296875 0.171875 3.742188 -0.5 2.421875 -1.84375 C 1.109375 -3.1875 0.453125 -4.804688 0.453125 -6.703125 C 0.453125 -8.609375 1.117188 -10.195312 2.453125 -11.46875 C 3.796875 -12.75 5.378906 -13.390625 7.203125 -13.390625 C 8.609375 -13.390625 9.941406 -12.925781 11.203125 -12 C 11.523438 -11.757812 11.6875 -11.488281 11.6875 -11.1875 C 11.6875 -10.894531 11.550781 -10.554688 11.28125 -10.171875 C 10.8125 -9.546875 10.382812 -9.234375 10 -9.234375 C 9.769531 -9.234375 9.40625 -9.394531 8.90625 -9.71875 C 8.40625 -10.050781 7.804688 -10.21875 7.109375 -10.21875 C 6.203125 -10.21875 5.394531 -9.894531 4.6875 -9.25 C 3.976562 -8.613281 3.625 -7.773438 3.625 -6.734375 C 3.625 -5.703125 3.984375 -4.820312 4.703125 -4.09375 C 5.421875 -3.375 6.234375 -3.015625 7.140625 -3.015625 C 7.796875 -3.015625 8.390625 -3.125 8.921875 -3.34375 L 8.921875 -5.296875 L 7.5 -5.296875 C 7.132812 -5.296875 6.875 -5.34375 6.71875 -5.4375 C 6.5625 -5.53125 6.457031 -5.671875 6.40625 -5.859375 C 6.363281 -6.046875 6.34375 -6.296875 6.34375 -6.609375 C 6.34375 -6.929688 6.367188 -7.1875 6.421875 -7.375 C 6.472656 -7.570312 6.570312 -7.707031 6.71875 -7.78125 C 6.925781 -7.882812 7.210938 -7.9375 7.578125 -7.9375 Z M 7.578125 -7.9375 "/></g></g></g><g fill="#ffffff" fill-opacity="1"><g transform="translate(17.064678, 30.584209)"><g><path d="M 10.796875 -2.21875 C 10.972656 -1.789062 11.0625 -1.484375 11.0625 -1.296875 C 11.0625 -0.835938 10.691406 -0.453125 9.953125 -0.140625 C 9.566406 0.0234375 9.253906 0.109375 9.015625 0.109375 C 8.785156 0.109375 8.59375 0.0507812 8.4375 -0.0625 C 8.289062 -0.175781 8.179688 -0.289062 8.109375 -0.40625 C 7.992188 -0.632812 7.53125 -1.71875 6.71875 -3.65625 L 6.15625 -3.625 L 3.890625 -3.625 L 3.890625 -1.59375 C 3.890625 -1.320312 3.878906 -1.113281 3.859375 -0.96875 C 3.847656 -0.832031 3.796875 -0.675781 3.703125 -0.5 C 3.535156 -0.175781 3.066406 -0.015625 2.296875 -0.015625 C 1.460938 -0.015625 0.972656 -0.238281 0.828125 -0.6875 C 0.753906 -0.882812 0.71875 -1.191406 0.71875 -1.609375 L 0.71875 -11.578125 C 0.71875 -11.859375 0.722656 -12.066406 0.734375 -12.203125 C 0.753906 -12.335938 0.816406 -12.492188 0.921875 -12.671875 C 1.085938 -12.992188 1.550781 -13.15625 2.3125 -13.15625 L 6.1875 -13.15625 C 7.25 -13.15625 8.273438 -12.773438 9.265625 -12.015625 C 9.742188 -11.640625 10.140625 -11.132812 10.453125 -10.5 C 10.765625 -9.863281 10.921875 -9.160156 10.921875 -8.390625 C 10.921875 -7.035156 10.46875 -5.921875 9.5625 -5.046875 C 9.832031 -4.410156 10.242188 -3.46875 10.796875 -2.21875 Z M 3.890625 -6.796875 L 6.1875 -6.796875 C 6.539062 -6.796875 6.890625 -6.925781 7.234375 -7.1875 C 7.578125 -7.457031 7.75 -7.851562 7.75 -8.375 C 7.75 -8.90625 7.578125 -9.304688 7.234375 -9.578125 C 6.890625 -9.847656 6.53125 -9.984375 6.15625 -9.984375 L 3.890625 -9.984375 Z M 3.890625 -6.796875 "/></g></g></g><g fill="#ffffff" fill-opacity="1"><g transform="translate(28.74134, 30.584209)"><g><path d="M 8.9375 -3.453125 L 9.265625 -3.6875 C 9.671875 -3.925781 9.957031 -4.046875 10.125 -4.046875 C 10.5 -4.046875 10.898438 -3.707031 11.328125 -3.03125 C 11.585938 -2.613281 11.71875 -2.28125 11.71875 -2.03125 C 11.71875 -1.78125 11.632812 -1.570312 11.46875 -1.40625 C 11.3125 -1.238281 11.125 -1.085938 10.90625 -0.953125 C 10.695312 -0.816406 10.492188 -0.6875 10.296875 -0.5625 C 10.097656 -0.445312 9.691406 -0.296875 9.078125 -0.109375 C 8.472656 0.078125 7.882812 0.171875 7.3125 0.171875 C 6.75 0.171875 6.175781 0.0976562 5.59375 -0.046875 C 5.007812 -0.191406 4.410156 -0.441406 3.796875 -0.796875 C 3.179688 -1.148438 2.628906 -1.582031 2.140625 -2.09375 C 1.648438 -2.601562 1.242188 -3.253906 0.921875 -4.046875 C 0.609375 -4.847656 0.453125 -5.710938 0.453125 -6.640625 C 0.453125 -7.578125 0.601562 -8.425781 0.90625 -9.1875 C 1.21875 -9.945312 1.617188 -10.570312 2.109375 -11.0625 C 2.597656 -11.5625 3.148438 -11.976562 3.765625 -12.3125 C 4.941406 -12.957031 6.125 -13.28125 7.3125 -13.28125 C 7.875 -13.28125 8.441406 -13.191406 9.015625 -13.015625 C 9.597656 -12.847656 10.039062 -12.675781 10.34375 -12.5 L 10.765625 -12.25 C 10.984375 -12.113281 11.15625 -12.003906 11.28125 -11.921875 C 11.582031 -11.671875 11.734375 -11.382812 11.734375 -11.0625 C 11.734375 -10.75 11.609375 -10.421875 11.359375 -10.078125 C 10.898438 -9.429688 10.484375 -9.109375 10.109375 -9.109375 C 9.890625 -9.109375 9.582031 -9.238281 9.1875 -9.5 C 8.6875 -9.90625 8.019531 -10.109375 7.1875 -10.109375 C 6.40625 -10.109375 5.640625 -9.835938 4.890625 -9.296875 C 4.523438 -9.035156 4.222656 -8.664062 3.984375 -8.1875 C 3.742188 -7.707031 3.625 -7.164062 3.625 -6.5625 C 3.625 -5.957031 3.742188 -5.414062 3.984375 -4.9375 C 4.222656 -4.457031 4.53125 -4.082031 4.90625 -3.8125 C 5.632812 -3.28125 6.394531 -3.015625 7.1875 -3.015625 C 7.550781 -3.015625 7.894531 -3.0625 8.21875 -3.15625 C 8.550781 -3.25 8.789062 -3.347656 8.9375 -3.453125 Z M 8.9375 -3.453125 "/></g></g></g><g fill="#ffffff" fill-opacity="1"><g transform="translate(41.278933, 30.584209)"><g/></g></g><g fill="#ffffff" fill-opacity="1"><g transform="translate(46.175764, 30.584209)"><g><path d="M 0.71875 -11.578125 C 0.71875 -11.859375 0.722656 -12.066406 0.734375 -12.203125 C 0.753906 -12.335938 0.816406 -12.492188 0.921875 -12.671875 C 1.085938 -12.992188 1.550781 -13.15625 2.3125 -13.15625 C 3.15625 -13.15625 3.65625 -12.9375 3.8125 -12.5 C 3.863281 -12.289062 3.890625 -11.976562 3.890625 -11.5625 L 3.890625 -1.578125 C 3.890625 -1.296875 3.878906 -1.085938 3.859375 -0.953125 C 3.847656 -0.816406 3.796875 -0.660156 3.703125 -0.484375 C 3.535156 -0.160156 3.066406 0 2.296875 0 C 1.460938 0 0.972656 -0.226562 0.828125 -0.6875 C 0.753906 -0.875 0.71875 -1.175781 0.71875 -1.59375 Z M 0.71875 -11.578125 "/></g></g></g><g fill="#ffffff" fill-opacity="1"><g transform="translate(51.144334, 30.584209)"><g><path d="M 9.21875 -12.609375 C 9.332031 -12.816406 9.503906 -12.957031 9.734375 -13.03125 C 9.960938 -13.101562 10.242188 -13.140625 10.578125 -13.140625 C 10.921875 -13.140625 11.195312 -13.109375 11.40625 -13.046875 C 11.613281 -12.992188 11.769531 -12.921875 11.875 -12.828125 C 11.976562 -12.742188 12.050781 -12.617188 12.09375 -12.453125 C 12.164062 -12.265625 12.203125 -11.960938 12.203125 -11.546875 L 12.203125 -1.578125 C 12.203125 -1.296875 12.191406 -1.085938 12.171875 -0.953125 C 12.160156 -0.816406 12.109375 -0.660156 12.015625 -0.484375 C 11.847656 -0.160156 11.378906 0 10.609375 0 C 10.140625 0 9.816406 -0.0351562 9.640625 -0.109375 C 9.460938 -0.179688 9.3125 -0.296875 9.1875 -0.453125 C 6.5 -4.035156 4.726562 -6.378906 3.875 -7.484375 L 3.875 -1.578125 C 3.875 -1.296875 3.863281 -1.085938 3.84375 -0.953125 C 3.832031 -0.816406 3.78125 -0.660156 3.6875 -0.484375 C 3.507812 -0.160156 3.039062 0 2.28125 0 C 1.539062 0 1.085938 -0.160156 0.921875 -0.484375 C 0.816406 -0.660156 0.753906 -0.820312 0.734375 -0.96875 C 0.722656 -1.113281 0.71875 -1.320312 0.71875 -1.59375 L 0.71875 -11.609375 C 0.71875 -12.066406 0.773438 -12.398438 0.890625 -12.609375 C 1.003906 -12.816406 1.171875 -12.957031 1.390625 -13.03125 C 1.617188 -13.101562 1.910156 -13.140625 2.265625 -13.140625 C 2.628906 -13.140625 2.914062 -13.101562 3.125 -13.03125 C 3.34375 -12.96875 3.492188 -12.894531 3.578125 -12.8125 C 3.617188 -12.78125 3.753906 -12.628906 3.984375 -12.359375 C 6.515625 -8.921875 8.203125 -6.648438 9.046875 -5.546875 L 9.046875 -11.609375 C 9.046875 -12.066406 9.101562 -12.398438 9.21875 -12.609375 Z M 9.21875 -12.609375 "/></g></g></g><g fill="#ffffff" fill-opacity="1"><g transform="translate(64.417308, 30.584209)"><g><path d="M 0.921875 -1.84375 C 0.609375 -2.226562 0.453125 -2.570312 0.453125 -2.875 C 0.453125 -3.1875 0.707031 -3.59375 1.21875 -4.09375 C 1.519531 -4.382812 1.835938 -4.53125 2.171875 -4.53125 C 2.503906 -4.53125 2.972656 -4.226562 3.578125 -3.625 C 3.742188 -3.425781 3.976562 -3.234375 4.28125 -3.046875 C 4.59375 -2.859375 4.882812 -2.765625 5.15625 -2.765625 C 6.269531 -2.765625 6.828125 -3.21875 6.828125 -4.125 C 6.828125 -4.40625 6.671875 -4.632812 6.359375 -4.8125 C 6.054688 -5 5.675781 -5.132812 5.21875 -5.21875 C 4.769531 -5.300781 4.28125 -5.4375 3.75 -5.625 C 3.226562 -5.8125 2.738281 -6.03125 2.28125 -6.28125 C 1.820312 -6.53125 1.441406 -6.925781 1.140625 -7.46875 C 0.835938 -8.019531 0.6875 -8.675781 0.6875 -9.4375 C 0.6875 -10.488281 1.078125 -11.40625 1.859375 -12.1875 C 2.640625 -12.976562 3.707031 -13.375 5.0625 -13.375 C 5.78125 -13.375 6.4375 -13.28125 7.03125 -13.09375 C 7.625 -12.90625 8.035156 -12.71875 8.265625 -12.53125 L 8.703125 -12.1875 C 9.078125 -11.84375 9.265625 -11.550781 9.265625 -11.3125 C 9.265625 -11.070312 9.117188 -10.742188 8.828125 -10.328125 C 8.421875 -9.722656 8.003906 -9.421875 7.578125 -9.421875 C 7.328125 -9.421875 7.015625 -9.539062 6.640625 -9.78125 C 6.609375 -9.8125 6.539062 -9.875 6.4375 -9.96875 C 6.332031 -10.0625 6.238281 -10.140625 6.15625 -10.203125 C 5.90625 -10.359375 5.582031 -10.4375 5.1875 -10.4375 C 4.800781 -10.4375 4.476562 -10.34375 4.21875 -10.15625 C 3.96875 -9.96875 3.84375 -9.707031 3.84375 -9.375 C 3.84375 -9.050781 3.992188 -8.785156 4.296875 -8.578125 C 4.597656 -8.378906 4.976562 -8.242188 5.4375 -8.171875 C 5.894531 -8.097656 6.390625 -7.984375 6.921875 -7.828125 C 7.460938 -7.679688 7.960938 -7.5 8.421875 -7.28125 C 8.878906 -7.070312 9.257812 -6.703125 9.5625 -6.171875 C 9.863281 -5.640625 10.015625 -4.984375 10.015625 -4.203125 C 10.015625 -3.421875 9.859375 -2.734375 9.546875 -2.140625 C 9.234375 -1.546875 8.828125 -1.085938 8.328125 -0.765625 C 7.359375 -0.140625 6.320312 0.171875 5.21875 0.171875 C 4.65625 0.171875 4.125 0.101562 3.625 -0.03125 C 3.125 -0.164062 2.71875 -0.332031 2.40625 -0.53125 C 1.769531 -0.914062 1.328125 -1.289062 1.078125 -1.65625 Z M 0.921875 -1.84375 "/></g></g></g><g fill="#ffffff" fill-opacity="1"><g transform="translate(75.233041, 30.584209)"><g><path d="M 0.71875 -11.578125 C 0.71875 -11.859375 0.722656 -12.066406 0.734375 -12.203125 C 0.753906 -12.335938 0.816406 -12.492188 0.921875 -12.671875 C 1.085938 -12.992188 1.550781 -13.15625 2.3125 -13.15625 C 3.15625 -13.15625 3.65625 -12.9375 3.8125 -12.5 C 3.863281 -12.289062 3.890625 -11.976562 3.890625 -11.5625 L 3.890625 -1.578125 C 3.890625 -1.296875 3.878906 -1.085938 3.859375 -0.953125 C 3.847656 -0.816406 3.796875 -0.660156 3.703125 -0.484375 C 3.535156 -0.160156 3.066406 0 2.296875 0 C 1.460938 0 0.972656 -0.226562 0.828125 -0.6875 C 0.753906 -0.875 0.71875 -1.175781 0.71875 -1.59375 Z M 0.71875 -11.578125 "/></g></g></g><g fill="#ffffff" fill-opacity="1"><g transform="translate(80.201608, 30.584209)"><g><path d="M 7.578125 -7.9375 L 10.734375 -7.9375 C 11.378906 -7.914062 11.773438 -7.75 11.921875 -7.4375 C 12.035156 -7.207031 12.09375 -6.867188 12.09375 -6.421875 L 12.09375 -2.484375 C 12.09375 -2.097656 11.925781 -1.726562 11.59375 -1.375 C 10.59375 -0.34375 9.085938 0.171875 7.078125 0.171875 C 5.296875 0.171875 3.742188 -0.5 2.421875 -1.84375 C 1.109375 -3.1875 0.453125 -4.804688 0.453125 -6.703125 C 0.453125 -8.609375 1.117188 -10.195312 2.453125 -11.46875 C 3.796875 -12.75 5.378906 -13.390625 7.203125 -13.390625 C 8.609375 -13.390625 9.941406 -12.925781 11.203125 -12 C 11.523438 -11.757812 11.6875 -11.488281 11.6875 -11.1875 C 11.6875 -10.894531 11.550781 -10.554688 11.28125 -10.171875 C 10.8125 -9.546875 10.382812 -9.234375 10 -9.234375 C 9.769531 -9.234375 9.40625 -9.394531 8.90625 -9.71875 C 8.40625 -10.050781 7.804688 -10.21875 7.109375 -10.21875 C 6.203125 -10.21875 5.394531 -9.894531 4.6875 -9.25 C 3.976562 -8.613281 3.625 -7.773438 3.625 -6.734375 C 3.625 -5.703125 3.984375 -4.820312 4.703125 -4.09375 C 5.421875 -3.375 6.234375 -3.015625 7.140625 -3.015625 C 7.796875 -3.015625 8.390625 -3.125 8.921875 -3.34375 L 8.921875 -5.296875 L 7.5 -5.296875 C 7.132812 -5.296875 6.875 -5.34375 6.71875 -5.4375 C 6.5625 -5.53125 6.457031 -5.671875 6.40625 -5.859375 C 6.363281 -6.046875 6.34375 -6.296875 6.34375 -6.609375 C 6.34375 -6.929688 6.367188 -7.1875 6.421875 -7.375 C 6.472656 -7.570312 6.570312 -7.707031 6.71875 -7.78125 C 6.925781 -7.882812 7.210938 -7.9375 7.578125 -7.9375 Z M 7.578125 -7.9375 "/></g></g></g><g fill="#ffffff" fill-opacity="1"><g transform="translate(93.366962, 30.584209)"><g><path d="M 8.84375 -12.671875 C 8.945312 -12.847656 9.109375 -12.972656 9.328125 -13.046875 C 9.554688 -13.117188 9.84375 -13.15625 10.1875 -13.15625 C 10.539062 -13.15625 10.816406 -13.125 11.015625 -13.0625 C 11.222656 -13.007812 11.378906 -12.941406 11.484375 -12.859375 C 11.597656 -12.773438 11.679688 -12.65625 11.734375 -12.5 C 11.796875 -12.289062 11.828125 -11.976562 11.828125 -11.5625 L 11.828125 -1.59375 C 11.828125 -1.320312 11.816406 -1.113281 11.796875 -0.96875 C 11.785156 -0.832031 11.734375 -0.675781 11.640625 -0.5 C 11.460938 -0.175781 10.992188 -0.015625 10.234375 -0.015625 C 9.398438 -0.015625 8.910156 -0.238281 8.765625 -0.6875 C 8.691406 -0.882812 8.65625 -1.191406 8.65625 -1.609375 L 8.65625 -5.265625 L 3.890625 -5.265625 L 3.890625 -1.59375 C 3.890625 -1.320312 3.878906 -1.113281 3.859375 -0.96875 C 3.847656 -0.832031 3.796875 -0.675781 3.703125 -0.5 C 3.535156 -0.175781 3.066406 -0.015625 2.296875 -0.015625 C 1.460938 -0.015625 0.972656 -0.238281 0.828125 -0.6875 C 0.753906 -0.882812 0.71875 -1.191406 0.71875 -1.609375 L 0.71875 -11.578125 C 0.71875 -11.859375 0.722656 -12.066406 0.734375 -12.203125 C 0.753906 -12.335938 0.816406 -12.492188 0.921875 -12.671875 C 1.085938 -12.992188 1.550781 -13.15625 2.3125 -13.15625 C 3.15625 -13.15625 3.65625 -12.9375 3.8125 -12.5 C 3.863281 -12.289062 3.890625 -11.976562 3.890625 -11.5625 L 3.890625 -7.90625 L 8.65625 -7.90625 L 8.65625 -11.578125 C 8.65625 -11.859375 8.660156 -12.066406 8.671875 -12.203125 C 8.691406 -12.335938 8.75 -12.492188 8.84375 -12.671875 Z M 8.84375 -12.671875 "/></g></g></g><g fill="#ffffff" fill-opacity="1"><g transform="translate(106.263272, 30.584209)"><g><path d="M 1.578125 -13.171875 L 11.5625 -13.171875 C 11.945312 -13.171875 12.226562 -13.125 12.40625 -13.03125 C 12.582031 -12.945312 12.703125 -12.804688 12.765625 -12.609375 C 12.828125 -12.421875 12.859375 -12.171875 12.859375 -11.859375 C 12.859375 -11.554688 12.828125 -11.3125 12.765625 -11.125 C 12.703125 -10.9375 12.597656 -10.804688 12.453125 -10.734375 C 12.242188 -10.628906 11.941406 -10.578125 11.546875 -10.578125 L 8.109375 -10.578125 L 8.109375 -1.546875 C 8.109375 -1.265625 8.097656 -1.054688 8.078125 -0.921875 C 8.066406 -0.796875 8.015625 -0.644531 7.921875 -0.46875 C 7.835938 -0.300781 7.679688 -0.179688 7.453125 -0.109375 C 7.222656 -0.0351562 6.921875 0 6.546875 0 C 6.179688 0 5.882812 -0.0351562 5.65625 -0.109375 C 5.4375 -0.179688 5.28125 -0.300781 5.1875 -0.46875 C 5.101562 -0.644531 5.050781 -0.800781 5.03125 -0.9375 C 5.019531 -1.082031 5.015625 -1.289062 5.015625 -1.5625 L 5.015625 -10.578125 L 1.5625 -10.578125 C 1.175781 -10.578125 0.894531 -10.617188 0.71875 -10.703125 C 0.539062 -10.796875 0.421875 -10.9375 0.359375 -11.125 C 0.296875 -11.320312 0.265625 -11.578125 0.265625 -11.890625 C 0.265625 -12.203125 0.296875 -12.445312 0.359375 -12.625 C 0.421875 -12.8125 0.523438 -12.941406 0.671875 -13.015625 C 0.878906 -13.117188 1.179688 -13.171875 1.578125 -13.171875 Z M 1.578125 -13.171875 "/></g></g></g></svg>